<?xml version="1.0" encoding="UTF-8" standalone="no"?>
<!DOCTYPE svg PUBLIC "-//W3C//DTD SVG 1.1//EN" "http://www.w3.org/Graphics/SVG/1.1/DTD/svg11.dtd">
<svg width="100%" height="100%" viewBox="0 0 61 61" version="1.1" xmlns="http://www.w3.org/2000/svg" xmlns:xlink="http://www.w3.org/1999/xlink" xml:space="preserve" xmlns:serif="http://www.serif.com/" style="fill-rule:evenodd;clip-rule:evenodd;stroke-linejoin:round;stroke-miterlimit:2;">
    <g transform="matrix(1,0,0,1,-3936,-6572)">
        <g transform="matrix(1,0,0,5.65764,2681.62,88)">
            <g id="mail">
                <g transform="matrix(0.766667,0,0,0.13551,-1826.71,268.767)">
                    <path d="M4058.4,6484.11C4074.97,6484.11 4088.4,6497.54 4088.4,6514.11C4088.4,6530.67 4074.97,6544.11 4058.4,6544.11C4041.83,6544.11 4028.4,6530.67 4028.4,6514.11C4028.4,6497.54 4041.83,6484.11 4058.4,6484.11Z" style="fill:white;"/>
                </g>
                <g id="mail1" serif:id="mail" transform="matrix(0.125,0,0,0.022094,1252.73,1145.73)">
                    <path d="M256,16C388.548,16 496,123.452 496,256C496,388.548 388.548,496 256,496C123.452,496 16,388.548 16,256C16,123.452 123.451,16 256,16ZM390.884,179.244L259.52,255.226C257.444,256.464 254.779,256.57 252.562,255.276L121.114,179.261L121.114,334.886C121.114,344.173 128.689,351.743 137.976,351.743L374.021,351.743C383.308,351.743 390.884,344.173 390.884,334.886L390.884,179.244ZM137.977,160.258C133.011,160.258 128.522,162.435 125.436,165.88L256.014,241.39L386.564,165.869C383.478,162.43 378.988,160.258 374.022,160.258L137.977,160.258Z" style="fill:rgb(0,194,241);"/>
                    <clipPath id="_clip1">
                        <path d="M256,16C388.548,16 496,123.452 496,256C496,388.548 388.548,496 256,496C123.452,496 16,388.548 16,256C16,123.452 123.451,16 256,16ZM390.884,179.244L259.52,255.226C257.444,256.464 254.779,256.57 252.562,255.276L121.114,179.261L121.114,334.886C121.114,344.173 128.689,351.743 137.976,351.743L374.021,351.743C383.308,351.743 390.884,344.173 390.884,334.886L390.884,179.244ZM137.977,160.258C133.011,160.258 128.522,162.435 125.436,165.88L256.014,241.39L386.564,165.869C383.478,162.43 378.988,160.258 374.022,160.258L137.977,160.258Z"/>
                    </clipPath>
                    <g clip-path="url(#_clip1)">
                        <g transform="matrix(8,0,0,8,-32021.6,-51856.8)">
                            <path d="M4058.4,6484.11C4074.97,6484.11 4088.4,6497.54 4088.4,6514.11C4088.4,6530.67 4074.97,6544.11 4058.4,6544.11C4041.83,6544.11 4028.4,6530.67 4028.4,6514.11C4028.4,6497.54 4041.83,6484.11 4058.4,6484.11Z" style="fill:rgb(238,178,6);"/>
                        </g>
                        <g transform="matrix(8,0,0,8,-32259.2,-51619.3)">
                            <path d="M4058.4,6484.11C4074.97,6484.11 4088.4,6497.54 4088.4,6514.11C4088.4,6530.67 4074.97,6544.11 4058.4,6544.11C4041.83,6544.11 4028.4,6530.67 4028.4,6514.11C4028.4,6497.54 4041.83,6484.11 4058.4,6484.11Z" style="fill:rgb(50,159,79);"/>
                        </g>
                        <g transform="matrix(8,0,0,8,-32494.7,-51864.3)">
                            <path d="M4058.4,6484.11C4074.97,6484.11 4088.4,6497.54 4088.4,6514.11C4088.4,6530.67 4074.97,6544.11 4058.4,6544.11C4041.83,6544.11 4028.4,6530.67 4028.4,6514.11C4028.4,6497.54 4041.83,6484.11 4058.4,6484.11Z" style="fill:rgb(62,126,232);"/>
                        </g>
                        <g transform="matrix(8,0,0,8,-32256,-52004.4)">
                            <path d="M4058.4,6484.11C4074.97,6484.11 4088.4,6497.54 4088.4,6514.11C4088.4,6530.67 4074.97,6544.11 4058.4,6544.11C4041.83,6544.11 4028.4,6530.67 4028.4,6514.11C4028.4,6497.54 4041.83,6484.11 4058.4,6484.11Z" style="fill:rgb(238,0,0);"/>
                        </g>
                    </g>
                </g>
            </g>
        </g>
    </g>
</svg>
