<?xml version="1.0" encoding="UTF-8" standalone="no"?>
<!DOCTYPE svg PUBLIC "-//W3C//DTD SVG 1.1//EN" "http://www.w3.org/Graphics/SVG/1.1/DTD/svg11.dtd">
<svg width="100%" height="100%" viewBox="0 0 61 61" version="1.1" xmlns="http://www.w3.org/2000/svg" xmlns:xlink="http://www.w3.org/1999/xlink" xml:space="preserve" xmlns:serif="http://www.serif.com/" style="fill-rule:evenodd;clip-rule:evenodd;stroke-linejoin:round;stroke-miterlimit:2;">
    <g transform="matrix(1,0,0,1,-4406,-6572)">
        <g transform="matrix(1,0,0,5.65764,2654.51,88)">
            <g id="messenger">
                <g transform="matrix(0.117188,0,0,0.0207131,1751.73,1146.08)">
                    <path d="M256,0C115.563,0 0,115.563 0,256C0,396.437 115.563,512 256,512C396.437,512 512,396.437 512,256C512,115.563 396.437,0 256,0Z" style="fill:url(#_Linear1);"/>
                </g>
                <g transform="matrix(0.117188,0,0,0.0207131,1751.73,1146.08)">
                    <path d="M256,392.32C240.489,392.33 225.048,390.246 210.095,386.124L155.607,416L155.607,359.505C119.273,332.364 96,290.909 96,244.16C96,162.327 167.651,96 256,96C344.349,96 416,162.356 416,244.16C416,325.964 344.349,392.32 256,392.32Z" style="fill:white;"/>
                </g>
                <g transform="matrix(0.117188,0,0,0.0207131,1751.73,1146.08)">
                    <path d="M359.36,202.676L271.884,295.447L231.156,252.044L151.651,295.505L239.127,202.676L280.873,246.08L359.36,202.676Z" style="fill:url(#_Linear2);"/>
                </g>
            </g>
        </g>
    </g>
    <defs>
        <linearGradient id="_Linear1" x1="0" y1="0" x2="1" y2="0" gradientUnits="userSpaceOnUse" gradientTransform="matrix(-192.99,468.918,-468.918,-192.99,383.729,34.5425)"><stop offset="0" style="stop-color:rgb(255,101,107);stop-opacity:1"/><stop offset="0.4" style="stop-color:rgb(206,66,192);stop-opacity:1"/><stop offset="0.74" style="stop-color:rgb(150,57,255);stop-opacity:1"/><stop offset="1" style="stop-color:rgb(63,113,255);stop-opacity:1"/></linearGradient>
        <linearGradient id="_Linear2" x1="0" y1="0" x2="1" y2="0" gradientUnits="userSpaceOnUse" gradientTransform="matrix(-192.99,468.918,-468.918,-192.99,383.729,34.5425)"><stop offset="0" style="stop-color:rgb(255,101,107);stop-opacity:1"/><stop offset="0.4" style="stop-color:rgb(206,66,192);stop-opacity:1"/><stop offset="0.74" style="stop-color:rgb(150,57,255);stop-opacity:1"/><stop offset="1" style="stop-color:rgb(63,113,255);stop-opacity:1"/></linearGradient>
    </defs>
</svg>
