<?xml version="1.0" encoding="UTF-8" standalone="no"?>
<!DOCTYPE svg PUBLIC "-//W3C//DTD SVG 1.1//EN" "http://www.w3.org/Graphics/SVG/1.1/DTD/svg11.dtd">
<svg width="100%" height="100%" viewBox="0 0 61 61" version="1.1" xmlns="http://www.w3.org/2000/svg" xmlns:xlink="http://www.w3.org/1999/xlink" xml:space="preserve" xmlns:serif="http://www.serif.com/" style="fill-rule:evenodd;clip-rule:evenodd;stroke-linejoin:round;stroke-miterlimit:2;">
    <g transform="matrix(1,0,0,1,-3299,-6572)">
        <g transform="matrix(1,0,0,5.65764,2726.73,88)">
            <g id="phone-grace" transform="matrix(0.117188,0,0,0.0207131,573.197,1146.08)">
                <path d="M256,0C114.624,0 0,114.624 0,256C0,397.376 114.624,512 256,512C397.376,512 512,397.376 512,256C512,114.624 397.376,0 256,0ZM384,400C234.016,400 112,277.984 112,128C112,119.168 119.168,112 128,112L187.072,112C195.904,112 203.072,119.168 203.072,128C203.072,155.648 209.088,181.984 220.96,206.24C222.848,210.08 223.104,214.464 221.696,218.496C220.32,222.528 217.376,225.824 213.536,227.68L189.664,239.2C209.536,273.792 238.208,302.496 272.768,322.304L284.288,298.464C286.144,294.624 289.44,291.712 293.472,290.304C297.504,288.928 301.92,289.184 305.728,291.04C330.048,302.912 356.352,308.928 383.968,308.928C392.8,308.928 399.968,316.096 399.968,324.928L399.968,384L400,384C400,392.832 392.832,400 384,400Z" style="fill:rgb(238,0,0);fill-rule:nonzero;"/>
                <clipPath id="_clip1">
                    <path d="M256,0C114.624,0 0,114.624 0,256C0,397.376 114.624,512 256,512C397.376,512 512,397.376 512,256C512,114.624 397.376,0 256,0ZM384,400C234.016,400 112,277.984 112,128C112,119.168 119.168,112 128,112L187.072,112C195.904,112 203.072,119.168 203.072,128C203.072,155.648 209.088,181.984 220.96,206.24C222.848,210.08 223.104,214.464 221.696,218.496C220.32,222.528 217.376,225.824 213.536,227.68L189.664,239.2C209.536,273.792 238.208,302.496 272.768,322.304L284.288,298.464C286.144,294.624 289.44,291.712 293.472,290.304C297.504,288.928 301.92,289.184 305.728,291.04C330.048,302.912 356.352,308.928 383.968,308.928C392.8,308.928 399.968,316.096 399.968,324.928L399.968,384L400,384C400,392.832 392.832,400 384,400Z" clip-rule="nonzero"/>
                </clipPath>
                <g clip-path="url(#_clip1)">
                    <g transform="matrix(8.53333,0,0,8.44493,-28150.8,-55495.7)">
                        <rect x="3289" y="6622" width="82" height="10.105" style="fill:rgb(12,94,175);"/>
                    </g>
                    <g transform="matrix(8.53333,0,0,8.44493,-28150.8,-55666.3)">
                        <rect x="3289" y="6622" width="82" height="10.105" style="fill:rgb(12,94,175);"/>
                    </g>
                    <g transform="matrix(8.53333,0,0,8.44493,-28150.8,-55837)">
                        <rect x="3289" y="6622" width="82" height="10.105" style="fill:rgb(12,94,175);"/>
                    </g>
                    <g transform="matrix(8.53333,0,0,8.44493,-28142.3,-55581)">
                        <rect x="3289" y="6622" width="82" height="10.105" style="fill:white;"/>
                    </g>
                    <g transform="matrix(8.53333,0,0,8.44493,-28142.3,-55751.7)">
                        <rect x="3289" y="6622" width="82" height="10.105" style="fill:white;"/>
                    </g>
                    <g transform="matrix(8.53333,0,0,8.44493,-28142.3,-55922.3)">
                        <rect x="3289" y="6622" width="82" height="10.105" style="fill:white;"/>
                    </g>
                </g>
            </g>
        </g>
    </g>
</svg>
