<?xml version="1.0" encoding="UTF-8" standalone="no"?>
<!DOCTYPE svg PUBLIC "-//W3C//DTD SVG 1.1//EN" "http://www.w3.org/Graphics/SVG/1.1/DTD/svg11.dtd">
<svg width="100%" height="100%" viewBox="0 0 101 100" version="1.1" xmlns="http://www.w3.org/2000/svg" xmlns:xlink="http://www.w3.org/1999/xlink" xml:space="preserve" xmlns:serif="http://www.serif.com/" style="fill-rule:evenodd;clip-rule:evenodd;stroke-linejoin:round;stroke-miterlimit:2;">
    <g transform="matrix(1,0,0,1,-5143,-1280)">
        <g transform="matrix(1,0,0,5.65764,2743.97,0)">
            <g id="quck-contact-toggle" transform="matrix(0.625,0,0,0.408739,1627.34,144.319)">
                <g transform="matrix(1.02034,0,0,0.275768,-25.1495,-4.07741)">
                    <circle cx="1314.67" cy="820" r="78.405" style="fill:rgb(238,0,0);"/>
                </g>
                <g transform="matrix(0.238129,0,0,0.0643591,1255.32,205.575)">
                    <path d="M374.72,355.04C379.6,367.04 372.48,385.2 368.72,396.56C361.36,417.12 335.68,423.92 316.24,424C256,424 197.36,399.76 154.8,357.12C112.24,314.56 88,255.92 88,195.76C88.08,176.24 94.88,150.64 115.44,143.28C126.8,139.52 144.96,132.4 156.96,137.28C167.68,141.6 170.32,156.8 172.64,166.64L178.32,190.64C180.96,201.76 177.68,213.44 169.6,221.6L140.32,250.96L141.92,255.68C160.4,309.36 202.64,351.6 256.32,370.08L261.04,371.68L264.64,368.16L290.4,342.4C298.568,334.32 310.24,331.04 321.36,333.68L345.36,339.36C355.2,341.68 370.4,344.24 374.72,355.04ZM409.92,129.12C429.6,159.92 428.32,200.64 406.792,230.08C384.792,260.08 351.352,279.68 314.392,284L319.352,265.36C310.392,263.76 301.672,260.8 293.592,256.64C260.144,239.36 240.952,201.84 246.232,164.64C251.424,128.08 279.672,97.76 315.832,90C351.84,82.24 390,98.08 409.92,129.12ZM391.92,182.16C402.24,182.16 402.24,166.16 391.92,166.16L325.44,166.16C315.12,166.16 315.12,182.16 325.44,182.16L391.92,182.16ZM293.44,182.16C303.76,182.16 303.76,166.16 293.44,166.16L277.44,166.16C267.12,166.16 267.12,182.16 277.44,182.16L293.44,182.16ZM380,150.16C390.32,150.16 390.32,134.16 380,134.16L337.36,134.16C327.04,134.16 327.04,150.16 337.36,150.16L380,150.16ZM305.36,150.16C315.68,150.16 315.68,134.16 305.36,134.16L289.36,134.16C279.04,134.16 279.04,150.16 289.36,150.16L305.36,150.16Z" style="fill:white;fill-rule:nonzero;"/>
                </g>
            </g>
        </g>
    </g>
</svg>
