<?xml version="1.0" encoding="UTF-8" standalone="no"?>
<!DOCTYPE svg PUBLIC "-//W3C//DTD SVG 1.1//EN" "http://www.w3.org/Graphics/SVG/1.1/DTD/svg11.dtd">
<svg width="100%" height="100%" viewBox="0 0 61 61" version="1.1" xmlns="http://www.w3.org/2000/svg" xmlns:xlink="http://www.w3.org/1999/xlink" xml:space="preserve" xmlns:serif="http://www.serif.com/" style="fill-rule:evenodd;clip-rule:evenodd;stroke-linejoin:round;stroke-miterlimit:2;">
    <g transform="matrix(1,0,0,1,-3665,-6572)">
        <g transform="matrix(1,0,0,5.65764,2712.55,88)">
            <g id="whatsapp">
                <g transform="matrix(0.117188,0,0,0.0207131,952.767,1018.45)">
                    <path d="M256,6161.58C114.637,6161.58 0,6276.21 0,6417.58C0,6558.94 114.637,6673.58 256,6673.58C397.363,6673.58 512,6558.94 512,6417.58C512,6276.21 397.363,6161.58 256,6161.58Z" style="fill:url(#_Linear1);"/>
                </g>
                <g transform="matrix(0.117188,0,0,0.0207131,952.767,1018.45)">
                    <path d="M260.931,6260.18L261.426,6260.17C302.41,6260.19 340.883,6276.14 369.809,6305.09C398.738,6334.05 414.66,6372.53 414.645,6413.45C414.609,6497.74 346.142,6566.35 261.92,6566.63L261.363,6566.63C235.719,6566.61 210.52,6560.19 188.141,6547.98L106.918,6569.28L128.656,6489.91C115.246,6466.68 108.191,6440.33 108.203,6413.33C108.238,6329.05 176.698,6260.45 260.931,6260.18Z" style="fill:white;"/>
                </g>
                <g transform="matrix(0.117188,0,0,0.0207131,952.767,1018.45)">
                    <path d="M261.477,6286.05C191.23,6286.05 134.102,6343.15 134.07,6413.35C134.063,6437.4 140.797,6460.83 153.543,6481.1L156.57,6485.91L143.703,6532.89L191.902,6520.25L196.555,6523.01C216.105,6534.61 238.52,6540.75 261.371,6540.76L261.422,6540.76C331.613,6540.76 388.742,6483.65 388.773,6413.45C388.785,6379.43 375.551,6347.44 351.508,6323.38C327.465,6299.32 295.488,6286.06 261.477,6286.05Z" style="fill:url(#_Linear2);"/>
                </g>
                <g transform="matrix(0.117188,0,0,0.0207131,952.767,1018.45)">
                    <path d="M336.383,6468.08C333.191,6477.02 317.898,6485.18 310.543,6486.28C303.945,6487.26 295.602,6487.67 286.43,6484.76C280.867,6483 273.738,6480.64 264.602,6476.7C226.199,6460.12 201.117,6421.47 199.203,6418.91C197.289,6416.36 183.57,6398.16 183.57,6379.32C183.57,6360.48 193.461,6351.22 196.969,6347.39C200.48,6343.56 204.629,6342.6 207.18,6342.6C209.73,6342.6 212.285,6342.63 214.516,6342.74C216.867,6342.85 220.023,6341.84 223.129,6349.31C226.32,6356.97 233.977,6375.81 234.934,6377.72C235.891,6379.64 236.527,6381.87 235.254,6384.43C233.977,6386.98 229.734,6392.49 225.684,6397.52C223.984,6399.62 221.77,6401.5 224.004,6405.33C226.234,6409.16 233.922,6421.69 245.301,6431.84C259.926,6444.88 272.262,6448.92 276.09,6450.84C279.914,6452.75 282.148,6452.43 284.383,6449.88C286.613,6447.33 293.953,6438.7 296.504,6434.87C299.055,6431.04 301.609,6431.68 305.117,6432.96C308.629,6434.23 327.449,6443.49 331.277,6445.41C335.105,6447.33 337.656,6448.28 338.613,6449.88C339.574,6451.48 339.574,6459.14 336.383,6468.08Z" style="fill:white;"/>
                </g>
            </g>
        </g>
    </g>
    <defs>
        <linearGradient id="_Linear1" x1="0" y1="0" x2="1" y2="0" gradientUnits="userSpaceOnUse" gradientTransform="matrix(3.1351e-14,512,-512,3.1351e-14,256,6161.58)"><stop offset="0" style="stop-color:rgb(3,190,61);stop-opacity:1"/><stop offset="1" style="stop-color:rgb(0,136,48);stop-opacity:1"/></linearGradient>
        <linearGradient id="_Linear2" x1="0" y1="0" x2="1" y2="0" gradientUnits="userSpaceOnUse" gradientTransform="matrix(3.1351e-14,512,-512,3.1351e-14,256,6161.58)"><stop offset="0" style="stop-color:rgb(3,190,61);stop-opacity:1"/><stop offset="1" style="stop-color:rgb(0,136,48);stop-opacity:1"/></linearGradient>
    </defs>
</svg>
